<?xml version="1.0" encoding="UTF-8" standalone="no"?>
<!-- Generator: Adobe Illustrator 17.0.0, SVG Export Plug-In . SVG Version: 6.00 Build 0)  -->

<svg
   xmlns:dc="http://purl.org/dc/elements/1.1/"
   xmlns:cc="http://creativecommons.org/ns#"
   xmlns:rdf="http://www.w3.org/1999/02/22-rdf-syntax-ns#"
   xmlns:svg="http://www.w3.org/2000/svg"
   xmlns="http://www.w3.org/2000/svg"
   xmlns:sodipodi="http://sodipodi.sourceforge.net/DTD/sodipodi-0.dtd"
   xmlns:inkscape="http://www.inkscape.org/namespaces/inkscape"
   version="1.1"
   id="圖層_1"
   x="0px"
   y="0px"
   width="300"
   height="86"
   viewBox="0 0 300 86"
   enable-background="new 0 0 263.638 107"
   xml:space="preserve"
   inkscape:version="0.91 r13725"
   sodipodi:docname="British Council.svg"><metadata
     id="metadata48803"><rdf:RDF><cc:Work
         rdf:about=""><dc:format>image/svg+xml</dc:format><dc:type
           rdf:resource="http://purl.org/dc/dcmitype/StillImage" /><dc:title></dc:title></cc:Work></rdf:RDF></metadata><defs
     id="defs48801" /><sodipodi:namedview
     pagecolor="#ffffff"
     bordercolor="#666666"
     borderopacity="1"
     objecttolerance="10"
     gridtolerance="10"
     guidetolerance="10"
     inkscape:pageopacity="0"
     inkscape:pageshadow="2"
     inkscape:window-width="1920"
     inkscape:window-height="1017"
     id="namedview48799"
     showgrid="false"
     fit-margin-top="0"
     fit-margin-left="0"
     fit-margin-right="0"
     fit-margin-bottom="0"
     inkscape:zoom="2.1999863"
     inkscape:cx="66.348846"
     inkscape:cy="28.145763"
     inkscape:window-x="-8"
     inkscape:window-y="-8"
     inkscape:window-maximized="1"
     inkscape:current-layer="圖層_1" /><g
     id="g49421"
     transform="matrix(2.0779974,0,0,2.0779974,-15.348089,-50.231431)"><g
       id="g48613"><path
         id="path48615"
         d="m 65.55,36.01 c -0.423,-0.184 -0.953,-0.29 -1.989,-0.29 l -3.792,0 0,4.827 3.58,0 c 1.087,0 1.725,-0.133 2.229,-0.37 0.85,-0.423 1.274,-1.17 1.274,-2.175 0,-0.904 -0.479,-1.619 -1.302,-1.992 m -0.926,-7.241 c -0.4,-0.184 -0.877,-0.291 -1.646,-0.291 l -3.209,0 0,4.563 3.024,0 c 0.954,0 1.538,-0.16 1.961,-0.4 0.691,-0.395 1.036,-1.06 1.036,-1.909 0,-0.875 -0.399,-1.59 -1.166,-1.963 m -7.853,14.484 0,-17.48 6.418,0 c 1.38,0 2.28,0.212 3.025,0.556 1.776,0.85 2.573,2.467 2.573,3.952 0,1.673 -0.692,2.811 -2.097,3.662 l 0,0.053 c 2.015,0.449 3.236,1.854 3.236,3.978 0,2.36 -1.431,4.164 -3.872,4.908 -0.876,0.264 -1.83,0.371 -3.343,0.371 l -5.94,0 z"
         inkscape:connector-curvature="0"
         style="fill:#004280" /></g><rect
       id="rect48617"
       height="17.48"
       width="2.997"
       y="25.773001"
       x="87.417"
       style="fill:#004280" /><rect
       id="rect48619"
       height="17.48"
       width="2.994"
       y="25.773001"
       x="109.179"
       style="fill:#004280" /><g
       id="g48621"><path
         id="path48623"
         d="m 121.854,25.614 c 1.884,0 3.794,0.452 4.852,0.981 l -0.05,2.865 c -1.513,-0.742 -3.052,-1.222 -4.881,-1.222 -1.642,0 -3.05,0.507 -3.05,1.886 0,3.58 8.994,2.148 8.994,8.061 0,3.264 -2.76,5.329 -6.767,5.329 -2.729,0 -4.613,-0.769 -5.913,-1.56 l 1.244,-2.441 c 1.064,0.664 2.763,1.379 4.776,1.379 1.805,0 3.476,-0.692 3.476,-2.281 0,-3.743 -8.912,-2.097 -8.912,-8.064 0,-3.184 2.544,-4.933 6.231,-4.933"
         inkscape:connector-curvature="0"
         style="fill:#004280" /></g><polygon
       id="polygon48625"
       points="141.907,25.773 144.904,25.773 144.904,43.253 141.907,43.253 141.907,35.72 133.418,35.72 133.418,43.253 130.421,43.253 130.421,25.773 133.418,25.773 133.418,32.935 141.907,32.935 "
       style="fill:#004280" /><g
       id="g48627"><path
         id="path48629"
         d="m 63.389,46.323 c 1.909,0 3.367,0.374 4.855,1.034 l -0.904,2.547 c -0.849,-0.396 -1.964,-0.873 -3.631,-0.873 -3.317,0 -5.384,2.81 -5.384,6.231 0,3.451 1.934,6.26 5.384,6.26 1.667,0 2.782,-0.475 3.631,-0.877 l 0.904,2.55 c -1.488,0.661 -2.946,1.032 -4.855,1.032 -5.227,0 -8.222,-3.659 -8.222,-8.911 0,-4.906 2.995,-8.993 8.222,-8.993"
         inkscape:connector-curvature="0"
         style="fill:#004280" /><path
         id="path48631"
         d="m 128.969,46.323 c 1.91,0 3.368,0.374 4.852,1.034 l -0.9,2.547 c -0.85,-0.396 -1.965,-0.873 -3.636,-0.873 -3.316,0 -5.384,2.81 -5.384,6.231 0,3.451 1.937,6.26 5.384,6.26 1.671,0 2.786,-0.475 3.636,-0.877 l 0.9,2.55 c -1.484,0.661 -2.942,1.032 -4.852,1.032 -5.228,0 -8.225,-3.659 -8.225,-8.911 0,-4.906 2.997,-8.993 8.225,-8.993"
         inkscape:connector-curvature="0"
         style="fill:#004280" /><path
         id="path48633"
         d="m 82.217,55.261 c 0,-3.818 -2.172,-6.258 -5.118,-6.258 -2.943,0 -5.12,2.44 -5.12,6.285 0,3.823 2.177,6.26 5.12,6.26 2.947,0 5.118,-2.437 5.118,-6.287 m 3.159,-0.055 c 0,5.255 -3.344,9.02 -8.276,9.02 -4.985,0 -8.275,-3.634 -8.275,-8.883 0,-5.252 3.341,-9.02 8.275,-9.02 4.989,0 8.276,3.636 8.276,8.883"
         inkscape:connector-curvature="0"
         style="fill:#004280" /><path
         id="path48635"
         d="m 87.402,57.382 0,-10.899 2.997,0 0,11.007 c 0,2.915 1.566,4.005 4.058,4.005 2.547,0 4.06,-1.09 4.06,-4.005 l 0,-11.007 2.997,0 0,10.899 c 0,4.75 -2.708,6.844 -7.107,6.844 -4.326,0 -7.005,-2.094 -7.005,-6.844"
         inkscape:connector-curvature="0"
         style="fill:#004280" /><path
         id="path48637"
         d="m 107.147,51.233 -0.053,0 c 0.053,0.581 0.079,1.51 0.079,2.334 l 0,10.394 -2.997,0 0,-17.476 3.237,0 8.112,11.908 0.055,0 c -0.055,-0.584 -0.079,-1.513 -0.079,-2.337 l 0,-9.571 2.995,0 0,17.476 -2.65,0 -8.699,-12.728 z"
         inkscape:connector-curvature="0"
         style="fill:#004280" /></g><rect
       id="rect48639"
       height="17.48"
       width="2.9920001"
       y="46.483002"
       x="136.17599"
       style="fill:#004280" /><polygon
       id="polygon48641"
       points="144.904,61.255 151.746,61.255 151.746,63.963 141.907,63.963 141.907,46.483 144.904,46.483 "
       style="fill:#004280" /><polygon
       id="polygon48643"
       points="92.699,25.776 92.699,28.508 98.293,28.508 98.293,43.253 101.29,43.253 101.29,28.508 106.887,28.508 106.887,25.776 "
       style="fill:#004280" /><path
       d="m 78.074,28.481 -3.104,0 0,5.306 2.97,0 c 2.15,0 3.157,-1.115 3.157,-2.707 0,-1.432 -0.928,-2.599 -3.023,-2.599 m 3.949,14.772 C 79.479,37.977 78.815,36.49 77.754,36.49 l -2.784,0 0,6.763 -2.995,0 0,-17.476 5.912,0 c 4.507,0 6.233,2.387 6.233,5.038 0,2.334 -1.352,3.899 -3.236,4.479 l 0,0.029 c 0.794,0.452 1.642,2.096 4.56,7.93 l -3.421,0 z"
       id="path48647"
       inkscape:connector-curvature="0"
       style="fill:#004280" /><path
       d="m 27.379,34.17 c 0,5.521 -4.476,9.997 -9.997,9.997 -5.52,0 -9.996,-4.476 -9.996,-9.997 0,-5.521 4.476,-9.997 9.996,-9.997 5.521,0.001 9.997,4.476 9.997,9.997"
       id="path48649"
       inkscape:connector-curvature="0"
       style="fill:#00a5e6" /><path
       d="m 48.772,34.17 c 0,5.521 -4.476,9.997 -9.997,9.997 -5.52,0 -9.996,-4.476 -9.996,-9.997 0,-5.521 4.476,-9.997 9.996,-9.997 5.521,0.001 9.997,4.476 9.997,9.997"
       id="path48651"
       inkscape:connector-curvature="0"
       style="fill:#00a5e6" /><path
       d="m 27.379,55.563 c 0,5.522 -4.476,9.996 -9.997,9.996 -5.52,0 -9.996,-4.474 -9.996,-9.996 0,-5.522 4.476,-9.996 9.996,-9.996 5.521,0 9.997,4.474 9.997,9.996"
       id="path48653"
       inkscape:connector-curvature="0"
       style="fill:#00a5e6" /><path
       d="m 48.772,55.563 c 0,5.522 -4.476,9.996 -9.997,9.996 -5.52,0 -9.996,-4.474 -9.996,-9.996 0,-5.522 4.476,-9.996 9.996,-9.996 5.521,0 9.997,4.474 9.997,9.996"
       id="path48655"
       inkscape:connector-curvature="0"
       style="fill:#00a5e6" /></g></svg>