<svg xmlns="http://www.w3.org/2000/svg" viewBox="0 0 130 19.48"><g data-name="Слой 2"><g data-name="Слой 1"><path d="M9.74 0H0v9.74h9.74z" fill="#32ae91"/><path d="M19.48 9.74H9.74v9.74h9.74z" fill="#ee5631"/><path d="M13 0h6.49v6.49h-3.25V3.25H13zM6.45 16.21A3.2 3.2 0 015.91 18a3.25 3.25 0 01-1.45 1.2 3.29 3.29 0 01-1.86.18 3.23 3.23 0 01-2.54-2.54 3.26 3.26 0 011.37-3.31 3.27 3.27 0 013-.3 3.21 3.21 0 012 3z" fill="#fd9a3e"/><path d="M48.39 3.28H51l6 8.42V3.28h2.77V16.2H57.1l-6-8.42v8.42h-2.71zm14.29 6.46A6.43 6.43 0 0169.54 3a6.44 6.44 0 016.87 6.71 6.45 6.45 0 01-6.87 6.72 6.43 6.43 0 01-6.86-6.69zm10.89 0a4 4 0 10-8 0 4 4 0 108 0zm5.69-6.45H82v5.12h1.82l3-5.12h3.08l-3.85 6.27 4 6.64H87l-3.14-5.28H82v5.28h-2.74zm25.37 12.91h-2.88l-.94-2.4H94.9l-.9 2.4h-2.92l5.26-12.92h3zm-4.69-4.72l-1.81-4.6c-.11-.31-.2-.63-.28-1a6.49 6.49 0 01-.29 1l-1.79 4.6zm6.55-8.2h4.21c4.6 0 6.77 2.72 6.77 6.46s-2.17 6.46-6.77 6.46h-4.21zm4.21 10.48c2.55 0 4-1.36 4-4s-1.4-4-4-4h-1.44v8zm11.87-2.14l-4.68-8.33H121l3 5.77 2.91-5.77H130l-4.68 8.34v4.57h-2.75zM32 3.28h-2.78V16.2H32zm3.46 12.02v-2.64A8.27 8.27 0 0040 14c1.5 0 2.4-.31 2.4-1.23 0-2.42-7-1.52-7-6.09C35.38 4.21 37.56 3 40.11 3a8.86 8.86 0 014.19 1v2.6a6.83 6.83 0 00-4-1.16c-1.42 0-2.1.41-2.1 1.2 0 2.24 7 1.4 7 6 0 2.89-2.32 3.8-5 3.8a9.93 9.93 0 01-4.78-1.16"/><path d="M41.19 16h-2.06L38 18.37h2.64z"/></g></g></svg>